nRows=42
nColumns=19
inDegrees=yes
endheader
time	ground_force_vx	ground_force_vy	ground_force_vz	ground_force_px	ground_force_py	ground_force_pz	1_ground_force_vx	1_ground_force_vy	1_ground_force_vz	1_ground_force_px	1_ground_force_py	1_ground_force_pz	ground_torque_x	ground_torque_y	ground_torque_z	1_ground_torque_x	1_ground_torque_y	1_ground_torque_z
16.898	-75.669441	613.037964	-290.252563	0.351873073	0	0.599872569	-0.018034	-0.234438	0.036067	0.300000012	0	0.2050000005	6.208499	19.925806	-6.208499	-0	0.025247	0
16.899	-75.453041	608.565552	-288.395081	0.352224704	0	0.599994262	-0.018034	-0.162303	0.090169	0.300000012	0	0.2050000005	6.089147	19.974138	-6.089147	-0	0.024526	0
16.9	-75.236633	604.129272	-286.429413	0.352589484	0	0.600126789	-0	-0.162303	0	0.300000012	0	0.2050000005	5.964695	20.010927	-5.964695	-0	0.025969	0
16.901	-74.857925	599.602783	-284.48175	0.352962976	0	0.600254838	0.018034	-0.14427	0.036067	0.300000012	0	0.2050000005	5.843226	20.046272	-5.843226	-0	0.023805	0
16.902	-74.515289	594.950134	-282.552155	0.353345901	0	0.600377782	0.018034	-0.162303	0.018034	0.300000012	0	0.2050000005	5.724739	20.078012	-5.724739	-0	0.01587	0
16.903	-74.136581	590.261353	-280.676636	0.353707037	0	0.600511427	0.036067	-0.14427	0.018034	0.300000012	0	0.2050000005	5.600738	20.090273	-5.600738	-0	0.025247	0
16.904	-73.721802	585.374207	-278.620819	0.354078443	0	0.600662023	0.018034	-0.216404	0.054101	0.300000012	0	0.2050000005	5.46621	20.102541	-5.46621	-0	0.027411	0
16.905	-73.270958	580.414917	-276.727264	0.354431431	0	0.600807581	0.018034	-0.216405	-0.036067	0.300000012	0	0.2050000005	5.335416	20.085226	-5.335416	-0	0.02669	0
16.906	-72.766022	575.257263	-274.653381	0.354796957	0	0.60092748	0.054101	-0.14427	0.180337	0.300000012	0	0.2050000005	5.219032	20.070078	-5.219032	-0	0.038232	0
16.907	-72.297142	570.298035	-272.669678	0.355129179	0	0.601048332	0.036067	-0.288539	-0.14427	0.300000012	0	0.2050000005	5.105118	20.028238	-5.105118	-0	0.031739	0
16.908	-71.936462	565.338745	-270.70401	0.355400259	0	0.601117581	0.036067	0.054101	0.360674	0.300000012	0	0.2050000005	5.021575	19.994333	-5.021575	-154998.8125	0.031739	154998.8125
16.909	-71.647926	560.758179	-268.05307	0.355662079	0	0.601151347	-0.018034	-0.270506	-0.234438	0.300000012	0	0.2050000005	4.961954	19.947449	-4.961954	-0	0.033182	0
16.91	-70.854446	555.420227	-266.448059	0.355900397	0	0.601279009	0.090168	-1.063989	-0.613146	0.300000012	0	0.2050000005	4.843814	19.858719	-4.843814	-0	0.012263	0
16.911	-70.006859	549.88385	-263.815125	0.35608979	0	0.60131594	-0	-0.595112	0.036067	0.300000012	0	0.2050000005	4.775224	19.833475	-4.775224	-0	0.054823	0
16.912	-69.213379	544.49176	-261.200256	0.3563374	0	0.601362554	-0.216404	-0.14427	0.072135	0.300000012	0	0.2050000005	4.703018	19.717337	-4.703018	-0	0.005771	0
16.913	-67.64444	539.081665	-258.567322	0.356447992	0	0.601405986	0.054101	0.378708	0.865618	0.300000012	0	0.2050000005	4.632875	19.631496	-4.632875	1.066575	0.020919	-1.066575
16.914	-66.201752	534.086304	-255.231079	0.356549442	0	0.60143714	0.198371	0.559045	-0.270506	0.300000012	0	0.2050000005	4.573306	19.545654	-4.573306	0.023371	0.088005	-0.023371
16.915	-64.470512	527.918823	-253.175232	0.35664664	0	0.601551834	0.162303	0.018034	-0.090168	0.300000012	0	0.2050000005	4.459945	19.395617	-4.459945	-27884240	0.020198	27884240
16.916	-62.576973	521.444702	-249.784912	0.356749315	0	0.601597679	0.090168	-0.288539	0.216405	0.300000012	0	0.2050000005	4.381345	19.269382	-4.381345	-0	0.016591	0
16.917	-61.062141	515.673889	-247.025757	0.356931796	0	0.601675799	-0.090169	-0.324607	-0.14427	0.300000012	0	0.2050000005	4.292572	19.096977	-4.292572	-0	0.018034	0
16.918	-59.276802	509.596558	-244.032166	0.35699867	0	0.601742564	-0.14427	0.162303	0.342641	0.300000012	0	0.2050000005	4.207961	18.943333	-4.207961	-504.903198	0.012263	504.903198
16.919	-57.383263	503.62738	-240.858215	0.357010271	0	0.601812438	0.126236	-0.306573	-0.504944	0.300000012	0	0.2050000005	4.12348	18.804111	-4.12348	-0	0.059872	0
16.92	-55.111015	496.738525	-238.29744	0.35707581	0	0.601924094	0.036067	-0.703315	0.018034	0.300000012	0	0.2050000005	4.011613	18.622334	-4.011613	-0	0.006492	0
16.921	-52.98304	490.120178	-234.636597	0.357146658	0	0.601924736	-0.054101	0.072135	0.613146	0.300000012	0	0.2050000005	3.95785	18.435503	-3.95785	-765212.6875	0.016591	765212.6875
16.922	-51.107533	484.187042	-231.282318	0.357196417	0	0.601966777	0.036067	0.28854	-0.036067	0.300000012	0	0.2050000005	3.889582	18.266705	-3.889582	0.108317	0.070692	-0.108317
16.923	-49.141861	477.658875	-228.378906	0.357223381	0	0.602063674	0.018034	-0.162303	-0.018034	0.300000012	0	0.2050000005	3.790856	18.069059	-3.790856	-0	0.014427	0
16.924	-47.086014	470.535583	-224.718048	0.357241681	0	0.602092339	0.072135	-0.396742	0.054101	0.300000012	0	0.2050000005	3.720835	17.854816	-3.720835	-0	0.016591	0
16.925	-45.26461	463.772888	-221.508057	0.357366826	0	0.602137068	-0.036067	-0.270506	0	0.300000012	0	0.2050000005	3.646614	17.634806	-3.646614	-0	0.034625	0
16.926	-43.425175	457.190582	-217.937378	0.3574151	0	0.602168066	-0.162303	0.036067	0.270506	0.300000012	0	0.2050000005	3.580686	17.38522	-3.580686	-131252728	0.005771	131252728
16.927	-41.567699	450.46405	-214.258484	0.357440824	0	0.602180936	-0.018034	-0.162303	-0.090168	0.300000012	0	0.2050000005	3.522207	17.176746	-3.522207	-0	0.044724	0
16.928	-39.710228	443.268555	-210.778	0.357545356	0	0.60221237	0.126236	-0.288539	0.126236	0.300000012	0	0.2050000005	3.452011	16.92716	-3.452011	-0	0.028854	0
16.929	-38.01506	436.145264	-206.792542	0.357581584	0	0.602176386	-0.126236	0.054101	0.342641	0.300000012	0	0.2050000005	3.412232	16.652328	-3.412232	-1925246.125	0.008656	1925246.125
16.93	-36.175621	429.003937	-202.969406	0.357612247	0	0.602164462	-0.036067	-0	0	0.300000012	0	0.2050000005	3.361476	16.398415	-3.361476	-0	0.049052	0
16.931	-34.426353	421.700226	-199.182327	0.357665594	0	0.602179628	0.090168	-0.34264	-0.108202	0.300000012	0	0.2050000005	3.297852	16.120695	-3.297852	-0	0.028133	0
16.932	-32.71315	414.07196	-195.269012	0.357731575	0	0.602163634	0.054101	-0.522978	-0.072135	0.300000012	0	0.2050000005	3.244819	15.826384	-3.244819	-0	0.013706	0
16.933	-30.873709	406.479797	-191.265533	0.357775089	0	0.6021172	0.036067	-0.324607	0.072135	0.300000012	0	0.2050000005	3.204199	15.547943	-3.204199	-0	0.01587	0
16.934	-29.232643	398.779419	-186.937439	0.357933499	0	0.60205426	-0.198371	-0.126236	0.036067	0.300000012	0	0.2050000005	3.168597	15.252913	-3.168597	-0	0.015148	0
16.935	-27.375172	391.169189	-182.645416	0.357944532	0	0.601968986	-0.018034	-0.162303	-0.018034	0.300000012	0	0.2050000005	3.141485	14.947782	-3.141485	-0	0.028854	0
16.936	-25.589834	383.03598	-178.227142	0.357950681	0	0.601889965	-0	-0.216404	-0.036067	0.300000012	0	0.2050000005	3.106435	14.624618	-3.106435	-0	0.024526	0
16.937	-23.894665	374.740479	-173.808884	0.358053713	0	0.60179945	-0.108202	-0.252472	0.090168	0.300000012	0	0.2050000005	3.073078	14.293518	-3.073078	-0	0.018034	0
16.938	-21.784719	366.336761	-169.138153	0.358099331	0	0.60166628	0.018034	-0.108202	0.216405	0.300000012	0	0.2050000005	3.052948	13.955929	-3.052948	-0	0.025247	0
16.939	-19.963316	358.347839	-164.359222	0.358033511	0	0.601509224	-0.018034	-0.018034	0.018034	0.300000012	0	0.2050000005	3.042651	13.629879	-3.042651	-0	0.031739	0
